<svg xmlns="http://www.w3.org/2000/svg" viewBox="0 0 64 64">
  <defs>
    <linearGradient id="brand" x1="8" x2="56" y1="8" y2="56" gradientUnits="userSpaceOnUse">
      <stop stop-color="#74e3d6"/>
      <stop offset="1" stop-color="#f5c667"/>
    </linearGradient>
  </defs>
  <rect width="64" height="64" rx="16" fill="#071113"/>
  <rect x="7" y="7" width="50" height="50" rx="13" fill="url(#brand)"/>
  <path fill="#071113" d="M17.5 43V21h10.2c2.5 0 4.5.6 5.9 1.7 1.5 1.1 2.2 2.7 2.2 4.8 0 1-.2 1.9-.7 2.7-.5.8-1.2 1.5-2.1 1.9 1.1.4 1.9 1 2.5 1.9.6.9.9 1.9.9 3.1 0 2.2-.7 3.9-2.2 5-1.5 1.2-3.5 1.8-6.2 1.8H17.5Zm5.1-13.1h4.7c1.1 0 1.9-.2 2.5-.7.6-.5.9-1.1.9-2 0-.9-.3-1.6-.9-2-.6-.4-1.5-.6-2.7-.6h-4.5v5.3Zm0 8.8h5.1c1.2 0 2.1-.2 2.7-.7.6-.5.9-1.2.9-2.1s-.3-1.6-.9-2.1c-.6-.5-1.5-.7-2.7-.7h-5.1v5.6ZM39 43V25.5h-6.3V21h17.8v4.5h-6.3V43H39Z"/>
</svg>
